{
	"asset":{
		"generator":"Khronos glTF Blender I/O v3.6.27",
		"version":"2.0"
	},
	"extensionsUsed":[
		"KHR_materials_specular",
		"KHR_materials_ior",
		"KHR_lights_punctual",
		"KHR_materials_emissive_strength"
	],
	"extensionsRequired":[
		"KHR_lights_punctual"
	],
	"extensions":{
		"KHR_lights_punctual":{
			"lights":[
				{
					"color":[
						1,
						1,
						1
					],
					"intensity":543.5141306588226,
					"spot":{
						"innerConeAngle":0.3337942263919169,
						"outerConeAngle":0.39269909262657166
					},
					"type":"spot",
					"name":"Spot"
				},
				{
					"color":[
						1,
						1,
						1
					],
					"intensity":543.5141306588226,
					"spot":{
						"innerConeAngle":0.3337942263919169,
						"outerConeAngle":0.39269909262657166
					},
					"type":"spot",
					"name":"Spot.001"
				}
			]
		}
	},
	"scene":0,
	"scenes":[
		{
			"name":"Scene",
			"nodes":[
				0,
				1,
				2,
				3,
				4,
				5,
				6,
				7
			]
		}
	],
	"nodes":[
		{
			"mesh":0,
			"name":"bg"
		},
		{
			"mesh":1,
			"name":"line_all"
		},
		{
			"camera":0,
			"name":"Camera",
			"rotation":[
				0.05616019666194916,
				0,
				0,
				0.9984217882156372
			],
			"translation":[
				0,
				0.23975616693496704,
				4.954936504364014
			]
		},
		{
			"extensions":{
				"KHR_lights_punctual":{
					"light":0
				}
			},
			"name":"Spot",
			"rotation":[
				-0.05937116965651512,
				-0.38564303517341614,
				-0.7241768836975098,
				0.5686144232749939
			],
			"translation":[
				-2.973330020904541,
				5.118724346160889,
				6.061891078948975
			]
		},
		{
			"extensions":{
				"KHR_lights_punctual":{
					"light":1
				}
			},
			"name":"Spot.001",
			"rotation":[
				-0.39816704392433167,
				-0.06709177047014236,
				-0.6077994108200073,
				0.6837701797485352
			],
			"translation":[
				3.461280584335327,
				5.118724346160889,
				6.438288688659668
			]
		},
		{
			"mesh":2,
			"name":"line_img"
		},
		{
			"mesh":3,
			"name":"line_shany"
		},
		{
			"mesh":4,
			"name":"Cube"
		}
	],
	"cameras":[
		{
			"name":"Camera",
			"perspective":{
				"aspectRatio":1.7777777777777777,
				"yfov":0.4333079550728708,
				"zfar":1000,
				"znear":0.10000000149011612
			},
			"type":"perspective"
		}
	],
	"materials":[
		{
			"doubleSided":true,
			"extensions":{
				"KHR_materials_specular":{
					"specularColorFactor":[
						1.46593017707402,
						1.46593017707402,
						1.46593017707402
					]
				},
				"KHR_materials_ior":{
					"ior":1.4500000476837158
				}
			},
			"name":"Material",
			"pbrMetallicRoughness":{
				"baseColorFactor":[
					0.800000011920929,
					0.800000011920929,
					0.800000011920929,
					1
				],
				"metallicFactor":0.2818181812763214,
				"roughnessFactor":0.1409091055393219
			}
		},
		{
			"doubleSided":true,
			"extensions":{
				"KHR_materials_specular":{
					"specularColorFactor":[
						0.150904572894563,
						0.150904572894563,
						0.150904572894563
					]
				},
				"KHR_materials_ior":{
					"ior":1.4500000476837158
				}
			},
			"name":"line-black",
			"pbrMetallicRoughness":{
				"baseColorFactor":[
					0.10000002384185791,
					0.10000002384185791,
					0.10000002384185791,
					1
				],
				"metallicFactor":0.3272727131843567,
				"roughnessFactor":0.15454545617103577
			}
		},
		{
			"doubleSided":true,
			"extensions":{
				"KHR_materials_specular":{
					"specularColorFactor":[
						0.150904572894563,
						0.150904572894563,
						0.150904572894563
					]
				},
				"KHR_materials_ior":{
					"ior":1.4500000476837158
				}
			},
			"name":"line-img",
			"pbrMetallicRoughness":{
				"baseColorTexture":{
					"index":0
				},
				"metallicFactor":0.3272727131843567,
				"roughnessFactor":0.15454545617103577
			}
		},
		{
			"doubleSided":true,
			"emissiveFactor":[
				1,
				0.3662525872883097,
				0
			],
			"extensions":{
				"KHR_materials_emissive_strength":{
					"emissiveStrength":1.0000001192092896
				},
				"KHR_materials_specular":{
					"specularColorFactor":[
						0.150904572894563,
						0.150904572894563,
						0.150904572894563
					]
				},
				"KHR_materials_ior":{
					"ior":1.4500000476837158
				}
			},
			"name":"line-shanne",
			"pbrMetallicRoughness":{
				"baseColorFactor":[
					1,
					0.3676217198371887,
					0,
					1
				],
				"metallicFactor":0.3272727131843567,
				"roughnessFactor":0.15454545617103577
			}
		}
	],
	"meshes":[
		{
			"name":"Cube",
			"primitives":[
				{
					"attributes":{
						"POSITION":0,
						"NORMAL":1,
						"TEXCOORD_0":2
					},
					"indices":3,
					"material":0
				}
			]
		},
		{
			"name":"Cube.002",
			"primitives":[
				{
					"attributes":{
						"POSITION":4,
						"NORMAL":5,
						"TEXCOORD_0":6
					},
					"indices":7,
					"material":1
				}
			]
		},
		{
			"name":"Cube.003",
			"primitives":[
				{
					"attributes":{
						"POSITION":8,
						"NORMAL":9,
						"TEXCOORD_0":10
					},
					"indices":11,
					"material":2
				}
			]
		},
		{
			"name":"Cube.004",
			"primitives":[
				{
					"attributes":{
						"POSITION":12,
						"NORMAL":13,
						"TEXCOORD_0":14
					},
					"indices":15,
					"material":3
				}
			]
		},
		{
			"name":"Cube.005",
			"primitives":[
				{
					"attributes":{
						"POSITION":16,
						"NORMAL":17,
						"TEXCOORD_0":18
					},
					"indices":19
				}
			]
		}
	],
	"textures":[
		{
			"sampler":0,
			"source":0
		}
	],
	"images":[
		{
			"bufferView":12,
			"mimeType":"image/jpeg",
			"name":"3d"
		}
	],
	"accessors":[
		{
			"bufferView":0,
			"componentType":5126,
			"count":24,
			"max":[
				2.1214945316314697,
				2.000566005706787,
				2.945646286010742
			],
			"min":[
				-2.121494770050049,
				0,
				-0.0003925595083273947
			],
			"type":"VEC3"
		},
		{
			"bufferView":1,
			"componentType":5126,
			"count":24,
			"type":"VEC3"
		},
		{
			"bufferView":2,
			"componentType":5126,
			"count":24,
			"type":"VEC2"
		},
		{
			"bufferView":3,
			"componentType":5123,
			"count":60,
			"type":"SCALAR"
		},
		{
			"bufferView":4,
			"componentType":5126,
			"count":22,
			"max":[
				0.29009196162223816,
				2.001668930053711,
				2.9475557804107666
			],
			"min":[
				-0.2900920808315277,
				0.0011028051376342773,
				0.0015171341365203261
			],
			"type":"VEC3"
		},
		{
			"bufferView":5,
			"componentType":5126,
			"count":22,
			"type":"VEC3"
		},
		{
			"bufferView":6,
			"componentType":5126,
			"count":22,
			"type":"VEC2"
		},
		{
			"bufferView":7,
			"componentType":5123,
			"count":60,
			"type":"SCALAR"
		},
		{
			"bufferView":8,
			"componentType":5126,
			"count":10,
			"max":[
				0.29009196162223816,
				2.001668930053711,
				0.08152537047863007
			],
			"min":[
				-0.29009196162223816,
				0.20532801747322083,
				0.004296435508877039
			],
			"type":"VEC3"
		},
		{
			"bufferView":9,
			"componentType":5126,
			"count":10,
			"type":"VEC3"
		},
		{
			"bufferView":10,
			"componentType":5126,
			"count":10,
			"type":"VEC2"
		},
		{
			"bufferView":11,
			"componentType":5123,
			"count":24,
			"type":"SCALAR"
		},
		{
			"bufferView":13,
			"componentType":5126,
			"count":18,
			"max":[
				0.29009196162223816,
				0.3759191632270813,
				2.9519176483154297
			],
			"min":[
				-0.2900920808315277,
				0.00650444719940424,
				0.0146840400993824
			],
			"type":"VEC3"
		},
		{
			"bufferView":14,
			"componentType":5126,
			"count":18,
			"type":"VEC3"
		},
		{
			"bufferView":15,
			"componentType":5126,
			"count":18,
			"type":"VEC2"
		},
		{
			"bufferView":16,
			"componentType":5123,
			"count":48,
			"type":"SCALAR"
		},
		{
			"bufferView":17,
			"componentType":5126,
			"count":24,
			"max":[
				0.2887931764125824,
				-0.008739948272705078,
				7.283882141113281
			],
			"min":[
				-0.28879308700561523,
				-3.811596393585205,
				2.973458766937256
			],
			"type":"VEC3"
		},
		{
			"bufferView":18,
			"componentType":5126,
			"count":24,
			"type":"VEC3"
		},
		{
			"bufferView":19,
			"componentType":5126,
			"count":24,
			"type":"VEC2"
		},
		{
			"bufferView":20,
			"componentType":5123,
			"count":36,
			"type":"SCALAR"
		}
	],
	"bufferViews":[
		{
			"buffer":0,
			"byteLength":288,
			"byteOffset":0,
			"target":34962
		},
		{
			"buffer":0,
			"byteLength":288,
			"byteOffset":288,
			"target":34962
		},
		{
			"buffer":0,
			"byteLength":192,
			"byteOffset":576,
			"target":34962
		},
		{
			"buffer":0,
			"byteLength":120,
			"byteOffset":768,
			"target":34963
		},
		{
			"buffer":0,
			"byteLength":264,
			"byteOffset":888,
			"target":34962
		},
		{
			"buffer":0,
			"byteLength":264,
			"byteOffset":1152,
			"target":34962
		},
		{
			"buffer":0,
			"byteLength":176,
			"byteOffset":1416,
			"target":34962
		},
		{
			"buffer":0,
			"byteLength":120,
			"byteOffset":1592,
			"target":34963
		},
		{
			"buffer":0,
			"byteLength":120,
			"byteOffset":1712,
			"target":34962
		},
		{
			"buffer":0,
			"byteLength":120,
			"byteOffset":1832,
			"target":34962
		},
		{
			"buffer":0,
			"byteLength":80,
			"byteOffset":1952,
			"target":34962
		},
		{
			"buffer":0,
			"byteLength":48,
			"byteOffset":2032,
			"target":34963
		},
		{
			"buffer":0,
			"byteLength":201730,
			"byteOffset":2080
		},
		{
			"buffer":0,
			"byteLength":216,
			"byteOffset":203812,
			"target":34962
		},
		{
			"buffer":0,
			"byteLength":216,
			"byteOffset":204028,
			"target":34962
		},
		{
			"buffer":0,
			"byteLength":144,
			"byteOffset":204244,
			"target":34962
		},
		{
			"buffer":0,
			"byteLength":96,
			"byteOffset":204388,
			"target":34963
		},
		{
			"buffer":0,
			"byteLength":288,
			"byteOffset":204484,
			"target":34962
		},
		{
			"buffer":0,
			"byteLength":288,
			"byteOffset":204772,
			"target":34962
		},
		{
			"buffer":0,
			"byteLength":192,
			"byteOffset":205060,
			"target":34962
		},
		{
			"buffer":0,
			"byteLength":72,
			"byteOffset":205252,
			"target":34963
		}
	],
	"samplers":[
		{
			"magFilter":9729,
			"minFilter":9987,
			"wrapS":33071,
			"wrapT":33071
		}
	],
	"buffers":[
		{
			"byteLength":205324,
			"uri":"data:application/octet-stream;base64,"
		}
	]
}
