{
	"asset":{
		"generator":"Khronos glTF Blender I/O v3.6.27",
		"version":"2.0"
	},
	"scene":0,
	"scenes":[
		{
			"name":"Scene",
			"nodes":[
				0,
				1
			]
		}
	],
	"nodes":[
		{
			"mesh":0,
			"name":"bg"
		},
		{
			"mesh":1,
			"name":"lines",
			"translation":[
				0,
				-0.009290991351008415,
				0.012387987226247787
			]
		}
	],
	"meshes":[
		{
			"name":"Cube",
			"primitives":[
				{
					"attributes":{
						"POSITION":0,
						"NORMAL":1,
						"TEXCOORD_0":2
					},
					"indices":3
				}
			]
		},
		{
			"name":"Cube.002",
			"primitives":[
				{
					"attributes":{
						"POSITION":4,
						"NORMAL":5,
						"TEXCOORD_0":6
					},
					"indices":7
				}
			]
		}
	],
	"accessors":[
		{
			"bufferView":0,
			"componentType":5126,
			"count":14,
			"max":[
				2.1214945316314697,
				0.0003925595083273947,
				2.000566005706787
			],
			"min":[
				-2.121494770050049,
				-2.945646286010742,
				0
			],
			"type":"VEC3"
		},
		{
			"bufferView":1,
			"componentType":5126,
			"count":14,
			"type":"VEC3"
		},
		{
			"bufferView":2,
			"componentType":5126,
			"count":14,
			"type":"VEC2"
		},
		{
			"bufferView":3,
			"componentType":5123,
			"count":36,
			"type":"SCALAR"
		},
		{
			"bufferView":4,
			"componentType":5126,
			"count":17,
			"max":[
				0.2984606623649597,
				-0.0015171341365203261,
				2.001668930053711
			],
			"min":[
				-0.2900920808315277,
				-2.9475557804107666,
				0.0011028051376342773
			],
			"type":"VEC3"
		},
		{
			"bufferView":5,
			"componentType":5126,
			"count":17,
			"type":"VEC3"
		},
		{
			"bufferView":6,
			"componentType":5126,
			"count":17,
			"type":"VEC2"
		},
		{
			"bufferView":7,
			"componentType":5123,
			"count":30,
			"type":"SCALAR"
		}
	],
	"bufferViews":[
		{
			"buffer":0,
			"byteLength":168,
			"byteOffset":0,
			"target":34962
		},
		{
			"buffer":0,
			"byteLength":168,
			"byteOffset":168,
			"target":34962
		},
		{
			"buffer":0,
			"byteLength":112,
			"byteOffset":336,
			"target":34962
		},
		{
			"buffer":0,
			"byteLength":72,
			"byteOffset":448,
			"target":34963
		},
		{
			"buffer":0,
			"byteLength":204,
			"byteOffset":520,
			"target":34962
		},
		{
			"buffer":0,
			"byteLength":204,
			"byteOffset":724,
			"target":34962
		},
		{
			"buffer":0,
			"byteLength":136,
			"byteOffset":928,
			"target":34962
		},
		{
			"buffer":0,
			"byteLength":60,
			"byteOffset":1064,
			"target":34963
		}
	],
	"buffers":[
		{
			"byteLength":1124,
			"uri":"data:application/octet-stream;base64,"
		}
	]
}
